<svg width="28" height="28" viewBox="0 0 28 28" fill="none" xmlns="http://www.w3.org/2000/svg">
<path d="M21.875 16.7825C21.875 18.9291 21.0223 20.9878 19.5044 22.5056C17.9865 24.0235 15.9278 24.8762 13.7812 24.8762C11.6347 24.8762 9.57598 24.0235 8.0581 22.5056C6.54023 20.9878 5.6875 18.9291 5.6875 16.7825C5.6875 9.69937 12.25 3.12375 13.7812 3.12375C15.3125 3.12375 21.875 9.69937 21.875 16.7825Z" fill="#006FED"/>
<path d="M12.8187 14.9056C12.8187 16.3581 11.8999 17.115 10.8937 17.115C9.88741 17.115 9.00366 16.3231 9.00366 15.0194C9.00366 13.7156 9.76054 12.8319 10.9462 12.8319C12.1318 12.8319 12.8187 13.72 12.8187 14.9056ZM10.1937 14.98C10.1937 15.7063 10.4387 16.2313 10.9112 16.2313C11.3837 16.2313 11.5937 15.7631 11.5937 14.98C11.5937 14.2756 11.4012 13.7288 10.898 13.7288C10.3949 13.7288 10.2112 14.2888 10.2112 14.98H10.1937ZM18.8124 17.7931C18.8124 19.2456 17.8937 20.0025 16.8874 20.0025C15.8812 20.0025 15.0062 19.2106 14.9974 17.9069C14.9887 16.6031 15.7543 15.7194 16.9399 15.7194C18.1255 15.7194 18.8124 16.625 18.8124 17.7931ZM16.218 17.8675C16.218 18.5938 16.4543 19.1188 16.9224 19.1188C17.3905 19.1188 17.6049 18.6506 17.6049 17.8675C17.6049 17.1631 17.4212 16.6163 16.9224 16.6163C16.4237 16.6163 16.2355 17.1719 16.2355 17.8675H16.218Z" fill="#F4D35E"/>
<path d="M16.0562 12.9894L12.0093 19.565" stroke="#F4D35E" stroke-width="2" stroke-linecap="round" stroke-linejoin="round"/>
</svg>
