<svg width="27" height="27" viewBox="0 0 27 27" fill="none" xmlns="http://www.w3.org/2000/svg">
<g clip-path="url(#clip0_105_127)">
<path d="M25.3125 11.8125H23.4731C22.7602 7.57266 19.4273 4.23879 15.1875 3.52687V1.64004C15.1875 0.708223 14.4318 0 13.5475 0C12.6631 0 11.8125 0.755684 11.8125 1.64004V3.52687C7.57266 4.23879 4.23879 7.57266 3.52687 11.8125H1.64004C0.755684 11.8125 0 12.5666 0 13.4525C0 14.3385 0.755684 15.1875 1.64004 15.1875H3.47941C4.23879 19.4273 7.57266 22.7602 11.8125 23.4721V25.3114C11.8125 26.2459 12.5666 26.9525 13.4525 26.9525C14.3385 26.9525 15.1875 26.2459 15.1875 25.3125V23.4731C19.4273 22.7602 22.7602 19.4273 23.4721 15.1875H25.3114C26.2459 15.1875 27 14.4334 27 13.5C27 12.5666 26.2459 11.8125 25.3125 11.8125ZM13.5 20.25C9.76904 20.25 6.75 17.231 6.75 13.5C6.75 9.76904 9.76904 6.75 13.5 6.75C17.231 6.75 20.25 9.76904 20.25 13.5C20.25 17.231 17.2336 20.25 13.5 20.25ZM13.5 8.85938C10.9371 8.85938 8.85938 10.9371 8.85938 13.5C8.85938 16.0629 10.9361 18.1406 13.5 18.1406C16.0639 18.1406 18.1406 16.0629 18.1406 13.5C18.1406 10.9371 16.0629 8.85938 13.5 8.85938Z" fill="#006FED"/>
</g>
<defs>
<clipPath id="clip0_105_127">
<rect width="27" height="27" fill="white"/>
</clipPath>
</defs>
</svg>
