<svg width="29" height="29" viewBox="0 0 29 29" fill="none" xmlns="http://www.w3.org/2000/svg">
<path d="M12.6874 18.4633V6.64584C12.6874 6.32537 12.5601 6.01803 12.3335 5.79142C12.1069 5.56482 11.7995 5.43751 11.479 5.43751C11.1586 5.43751 10.8512 5.56482 10.6246 5.79142C10.398 6.01803 10.2707 6.32537 10.2707 6.64584V18.4633C9.90546 18.6742 9.60176 18.977 9.38978 19.3416C9.1778 19.7062 9.06493 20.1199 9.06238 20.5417C9.06238 21.1826 9.31699 21.7973 9.77021 22.2505C10.2234 22.7037 10.8381 22.9583 11.479 22.9583C12.12 22.9583 12.7347 22.7037 13.1879 22.2505C13.6411 21.7973 13.8957 21.1826 13.8957 20.5417C13.8932 20.1199 13.7803 19.7062 13.5683 19.3416C13.3563 18.977 13.0526 18.6742 12.6874 18.4633ZM23.5624 3.02084H22.9582V2.41668C22.9582 2.09621 22.8309 1.78886 22.6043 1.56226C22.3777 1.33565 22.0703 1.20834 21.7499 1.20834C21.4294 1.20834 21.1221 1.33565 20.8955 1.56226C20.6689 1.78886 20.5415 2.09621 20.5415 2.41668V3.02084H19.9374C19.6169 3.02084 19.3096 3.14815 19.083 3.37476C18.8564 3.60136 18.729 3.90871 18.729 4.22918C18.729 4.54965 18.8564 4.85699 19.083 5.0836C19.3096 5.3102 19.6169 5.43751 19.9374 5.43751H20.5415V6.04168C20.5415 6.36215 20.6689 6.66949 20.8955 6.8961C21.1221 7.1227 21.4294 7.25001 21.7499 7.25001C22.0703 7.25001 22.3777 7.1227 22.6043 6.8961C22.8309 6.66949 22.9582 6.36215 22.9582 6.04168V5.43751H23.5624C23.8828 5.43751 24.1902 5.3102 24.4168 5.0836C24.6434 4.85699 24.7707 4.54965 24.7707 4.22918C24.7707 3.90871 24.6434 3.60136 24.4168 3.37476C24.1902 3.14815 23.8828 3.02084 23.5624 3.02084ZM16.9165 6.64584C16.9165 5.20373 16.3437 3.82068 15.3239 2.80095C14.3042 1.78122 12.9212 1.20834 11.479 1.20834C10.0369 1.20834 8.65388 1.78122 7.63415 2.80095C6.61442 3.82068 6.04155 5.20373 6.04155 6.64584V15.7083C5.2064 16.6547 4.63278 17.8027 4.37745 19.0388C4.12211 20.2749 4.19389 21.5562 4.58569 22.756C4.9775 23.9558 5.67575 25.0326 6.61137 25.8798C7.547 26.7269 8.68758 27.3152 9.9203 27.5863C10.4284 27.7022 10.9462 27.771 11.467 27.7917C12.8704 27.8006 14.2463 27.4019 15.4276 26.6441C16.6089 25.8862 17.5448 24.8018 18.1218 23.5225C18.6988 22.2431 18.8921 20.8237 18.6781 19.4366C18.4642 18.0496 17.8522 16.7544 16.9165 15.7083V6.64584ZM14.4999 24.2996C13.8635 24.817 13.1058 25.164 12.2983 25.3078C11.4907 25.4517 10.6599 25.3876 9.88393 25.1217C9.10798 24.8558 8.41247 24.3968 7.86287 23.7879C7.31328 23.179 6.92768 22.4403 6.74238 21.6413C6.5557 20.8335 6.57991 19.9914 6.81268 19.1957C7.04545 18.4001 7.47896 17.6777 8.07155 17.0979C8.18572 16.986 8.27655 16.8526 8.33878 16.7053C8.401 16.558 8.43338 16.3999 8.43405 16.24V6.64584C8.43405 5.84467 8.75231 5.07631 9.31883 4.50979C9.88534 3.94328 10.6537 3.62501 11.4549 3.62501C12.2561 3.62501 13.0244 3.94328 13.5909 4.50979C14.1574 5.07631 14.4757 5.84467 14.4757 6.64584V16.24C14.4764 16.3999 14.5088 16.558 14.571 16.7053C14.6332 16.8526 14.724 16.986 14.8382 17.0979C15.3321 17.5751 15.7187 18.152 15.9721 18.7902C16.2256 19.4285 16.3401 20.1134 16.3081 20.7994C16.2761 21.4854 16.0983 22.1567 15.7865 22.7686C15.4747 23.3805 15.0361 23.9189 14.4999 24.3479V24.2996Z" fill="#006FED"/>
</svg>
