<svg width="146" height="146" viewBox="0 0 146 146" fill="none" xmlns="http://www.w3.org/2000/svg">
<g clip-path="url(#clip0_105_155)">
<path d="M118.77 122.534H77.925C75.5186 122.532 73.2115 121.575 71.5099 119.873C69.8083 118.171 68.8512 115.864 68.8484 113.458V49.9214C68.8508 47.5149 69.8078 45.2076 71.5095 43.506C73.2112 41.8043 75.5185 40.8472 77.925 40.8448H118.77V49.9214H77.925V113.458H118.77V122.534Z" fill="#006FED"/>
<path d="M37.0803 58.9981C33.4899 58.9981 29.9801 57.9334 26.9949 55.9387C24.0096 53.944 21.6828 51.1088 20.3088 47.7918C18.9349 44.4747 18.5754 40.8247 19.2758 37.3033C19.9763 33.7819 21.7052 30.5473 24.244 28.0085C26.7828 25.4697 30.0174 23.7408 33.5387 23.0404C37.0601 22.3399 40.7101 22.6994 44.0272 24.0734C47.3443 25.4474 50.1794 27.7741 52.1741 30.7594C54.1688 33.7447 55.2335 37.2544 55.2335 40.8448C55.2194 45.655 53.3023 50.2642 49.9009 53.6655C46.4996 57.0668 41.8905 58.9839 37.0803 58.9981ZM37.0803 31.7682C35.2851 31.7682 33.5302 32.3005 32.0376 33.2979C30.5449 34.2952 29.3815 35.7128 28.6946 37.3713C28.0076 39.0299 27.8278 40.8549 28.178 42.6156C28.5283 44.3763 29.3927 45.9936 30.6621 47.263C31.9315 48.5323 33.5488 49.3968 35.3095 49.747C37.0702 50.0973 38.8952 49.9175 40.5537 49.2305C42.2123 48.5435 43.6298 47.3802 44.6272 45.8875C45.6246 44.3949 46.1569 42.64 46.1569 40.8448C46.1498 38.4397 45.1913 36.1351 43.4906 34.4345C41.7899 32.7338 39.4854 31.7753 37.0803 31.7682Z" fill="#006FED"/>
</g>
<defs>
<clipPath id="clip0_105_155">
<rect width="145.226" height="145.226" fill="white" transform="translate(0.773926)"/>
</clipPath>
</defs>
</svg>
