<svg width="24" height="24" viewBox="0 0 24 24" fill="none" xmlns="http://www.w3.org/2000/svg">
<path d="M21.91 4.09C21.7351 4.01123 21.5412 3.98443 21.3515 4.0128C21.1618 4.04117 20.9842 4.12351 20.84 4.25L19.48 5.46C18.5588 4.37523 17.4126 3.50388 16.121 2.9064C14.8293 2.30893 13.4231 1.99964 12 2C10.1661 1.9983 8.36711 2.50092 6.79969 3.45288C5.23226 4.40485 3.9568 5.7695 3.11278 7.3976C2.26876 9.02569 1.8887 10.8545 2.01415 12.6841C2.13961 14.5137 2.76575 16.2735 3.8241 17.7712C4.88246 19.2688 6.33226 20.4466 8.01496 21.1757C9.69765 21.9048 11.5484 22.1571 13.3649 21.9051C15.1814 21.6531 16.8936 20.9065 18.3142 19.7468C19.7349 18.5872 20.8093 17.0592 21.42 15.33C21.5075 15.0794 21.4919 14.8042 21.3766 14.5651C21.2612 14.326 21.0556 14.1425 20.805 14.055C20.5544 13.9675 20.2792 13.9831 20.0401 14.0984C19.801 14.2138 19.6175 14.4194 19.53 14.67C19.0404 16.0529 18.18 17.2745 17.0428 18.2013C15.9057 19.1281 14.5356 19.7243 13.0824 19.9249C11.6291 20.1254 10.1488 19.9225 8.8031 19.3384C7.45744 18.7542 6.2983 17.8113 5.45245 16.6127C4.6066 15.4142 4.10659 14.0061 4.00712 12.5425C3.90764 11.0789 4.21252 9.61608 4.88842 8.31408C5.56431 7.01208 6.5852 5.92099 7.83945 5.16013C9.0937 4.39927 10.533 3.99793 12 4C13.142 3.99967 14.2704 4.24821 15.3066 4.72831C16.3428 5.20842 17.2619 5.90855 18 6.78L16.34 8.25C16.187 8.38531 16.0792 8.56421 16.0309 8.76265C15.9826 8.96109 15.9963 9.16954 16.07 9.36C16.1425 9.54793 16.2701 9.70959 16.436 9.82378C16.602 9.93798 16.7986 9.9994 17 10H21.5C21.7652 10 22.0196 9.89464 22.2071 9.7071C22.3946 9.51957 22.5 9.26521 22.5 9V5C22.4996 4.80764 22.4437 4.61947 22.3391 4.45807C22.2344 4.29666 22.0854 4.16886 21.91 4.09Z" fill="#006FED"/>
</svg>
