<svg width="28" height="28" viewBox="0 0 28 28" fill="none" xmlns="http://www.w3.org/2000/svg">
<path d="M16.6295 19.1383H15.9978C15.8527 19.1383 15.7136 19.0807 15.6111 18.9781C15.5085 18.8756 15.4509 18.7365 15.4509 18.5914C15.4509 18.4464 15.5085 18.3073 15.6111 18.2047C15.7136 18.1022 15.8527 18.0446 15.9978 18.0446H16.6295C16.8282 18.044 17.0187 17.9647 17.159 17.8239C17.2994 17.6832 17.3782 17.4925 17.3782 17.2938C17.3782 17.095 17.2994 16.9044 17.159 16.7636C17.0187 16.6229 16.8282 16.5435 16.6295 16.543H7.13867C6.99363 16.543 6.85453 16.4854 6.75197 16.3828C6.64941 16.2803 6.5918 16.1412 6.5918 15.9961C6.5918 15.8511 6.64941 15.712 6.75197 15.6094C6.85453 15.5069 6.99363 15.4492 7.13867 15.4492H16.6295C17.1181 15.4501 17.5865 15.6448 17.9317 15.9906C18.2769 16.3364 18.4708 16.8051 18.4708 17.2938C18.4708 17.7824 18.2769 18.2511 17.9317 18.5969C17.5865 18.9428 17.1181 19.1375 16.6295 19.1383Z" fill="#006FED"/>
<path d="M14.9342 12.5508H3.63184C3.4868 12.5508 3.3477 12.4932 3.24514 12.3906C3.14258 12.288 3.08496 12.1489 3.08496 12.0039C3.08496 11.8589 3.14258 11.7198 3.24514 11.6172C3.3477 11.5146 3.4868 11.457 3.63184 11.457H14.9342C15.1333 11.457 15.3242 11.3779 15.465 11.2371C15.6058 11.0963 15.6849 10.9054 15.6849 10.7063C15.6849 10.5071 15.6058 10.3162 15.465 10.1754C15.3242 10.0346 15.1333 9.95547 14.9342 9.95547H14.3025C14.1574 9.95547 14.0183 9.89786 13.9158 9.7953C13.8132 9.69274 13.7556 9.55364 13.7556 9.4086C13.7556 9.26356 13.8132 9.12446 13.9158 9.0219C14.0183 8.91934 14.1574 8.86172 14.3025 8.86172H14.9342C15.4234 8.86172 15.8925 9.05606 16.2384 9.40197C16.5843 9.74789 16.7787 10.2171 16.7787 10.7063C16.7787 11.1955 16.5843 11.6646 16.2384 12.0105C15.8925 12.3564 15.4234 12.5508 14.9342 12.5508Z" fill="#006FED"/>
<path d="M20.5134 14.5874H5.32715C5.18211 14.5874 5.04301 14.5298 4.94045 14.4272C4.83789 14.3247 4.78027 14.1856 4.78027 14.0405C4.78027 13.8955 4.83789 13.7564 4.94045 13.6538C5.04301 13.5513 5.18211 13.4937 5.32715 13.4937H20.5134C20.8686 13.4937 21.2091 13.3526 21.4603 13.1015C21.7114 12.8504 21.8524 12.5098 21.8524 12.1546C21.8524 11.7995 21.7114 11.4589 21.4603 11.2078C21.2091 10.9567 20.8686 10.8156 20.5134 10.8156H19.5954C19.4503 10.8156 19.3112 10.758 19.2087 10.6554C19.1061 10.5529 19.0485 10.4138 19.0485 10.2687C19.0485 10.1237 19.1061 9.9846 19.2087 9.88204C19.3112 9.77948 19.4503 9.72186 19.5954 9.72186H20.5134C20.8329 9.72186 21.1493 9.78479 21.4444 9.90705C21.7396 10.0293 22.0078 10.2085 22.2337 10.4344C22.4596 10.6603 22.6388 10.9285 22.761 11.2237C22.8833 11.5188 22.9462 11.8352 22.9462 12.1546C22.9462 12.4741 22.8833 12.7905 22.761 13.0856C22.6388 13.3808 22.4596 13.649 22.2337 13.8749C22.0078 14.1008 21.7396 14.28 21.4444 14.4022C21.1493 14.5245 20.8329 14.5874 20.5134 14.5874Z" fill="#006FED"/>
</svg>
